<mxfile host="app.diagrams.net" modified="2022-08-21T10:13:46.162Z" agent="5.0 (Windows NT 10.0; Win64; x64) AppleWebKit/537.36 (KHTML, like Gecko) Chrome/104.0.0.0 Safari/537.36" etag="Mze58PUOktvNjR8noI9y" version="20.2.4" type="github" pages="2">
  <diagram id="C5RBs43oDa-KdzZeNtuy" name="Page-1">
    <mxGraphModel dx="1168" dy="546" grid="1" gridSize="10" guides="0" tooltips="1" connect="1" arrows="1" fold="1" page="1" pageScale="1" pageWidth="827" pageHeight="1169" math="0" shadow="0">
      <root>
        <mxCell id="WIyWlLk6GJQsqaUBKTNV-0" />
        <mxCell id="WIyWlLk6GJQsqaUBKTNV-1" parent="WIyWlLk6GJQsqaUBKTNV-0" />
        <mxCell id="UcYRCb74icyb-nwJt9lY-2" value="" style="edgeStyle=orthogonalEdgeStyle;rounded=0;orthogonalLoop=1;jettySize=auto;html=1;" parent="WIyWlLk6GJQsqaUBKTNV-1" source="UcYRCb74icyb-nwJt9lY-0" target="UcYRCb74icyb-nwJt9lY-1" edge="1">
          <mxGeometry relative="1" as="geometry" />
        </mxCell>
        <mxCell id="UcYRCb74icyb-nwJt9lY-0" value="开始" style="strokeWidth=2;html=1;shape=mxgraph.flowchart.start_2;whiteSpace=wrap;fillColor=#d5e8d4;strokeColor=#82b366;" parent="WIyWlLk6GJQsqaUBKTNV-1" vertex="1">
          <mxGeometry x="375" y="30" width="50" height="50" as="geometry" />
        </mxCell>
        <mxCell id="UcYRCb74icyb-nwJt9lY-5" value="" style="edgeStyle=orthogonalEdgeStyle;rounded=0;orthogonalLoop=1;jettySize=auto;html=1;" parent="WIyWlLk6GJQsqaUBKTNV-1" source="UcYRCb74icyb-nwJt9lY-1" target="UcYRCb74icyb-nwJt9lY-4" edge="1">
          <mxGeometry relative="1" as="geometry" />
        </mxCell>
        <mxCell id="UcYRCb74icyb-nwJt9lY-22" value="" style="edgeStyle=orthogonalEdgeStyle;rounded=0;orthogonalLoop=1;jettySize=auto;html=1;" parent="WIyWlLk6GJQsqaUBKTNV-1" source="UcYRCb74icyb-nwJt9lY-1" target="UcYRCb74icyb-nwJt9lY-21" edge="1">
          <mxGeometry relative="1" as="geometry" />
        </mxCell>
        <mxCell id="UcYRCb74icyb-nwJt9lY-1" value="内网应用是否&lt;br&gt;已达上限" style="rhombus;whiteSpace=wrap;html=1;strokeWidth=2;" parent="WIyWlLk6GJQsqaUBKTNV-1" vertex="1">
          <mxGeometry x="340" y="120" width="120" height="80" as="geometry" />
        </mxCell>
        <mxCell id="UcYRCb74icyb-nwJt9lY-3" value="结束" style="strokeWidth=2;html=1;shape=mxgraph.flowchart.start_2;whiteSpace=wrap;fillColor=#d5e8d4;strokeColor=#82b366;" parent="WIyWlLk6GJQsqaUBKTNV-1" vertex="1">
          <mxGeometry x="375" y="500" width="50" height="50" as="geometry" />
        </mxCell>
        <mxCell id="UcYRCb74icyb-nwJt9lY-13" value="" style="edgeStyle=orthogonalEdgeStyle;rounded=0;orthogonalLoop=1;jettySize=auto;html=1;" parent="WIyWlLk6GJQsqaUBKTNV-1" source="UcYRCb74icyb-nwJt9lY-4" target="UcYRCb74icyb-nwJt9lY-12" edge="1">
          <mxGeometry relative="1" as="geometry" />
        </mxCell>
        <mxCell id="UcYRCb74icyb-nwJt9lY-4" value="弹出新增弹框" style="strokeWidth=2;html=1;shape=mxgraph.flowchart.terminator;whiteSpace=wrap;" parent="WIyWlLk6GJQsqaUBKTNV-1" vertex="1">
          <mxGeometry x="350" y="240" width="100" height="40" as="geometry" />
        </mxCell>
        <mxCell id="UcYRCb74icyb-nwJt9lY-6" value="N" style="text;html=1;align=center;verticalAlign=middle;resizable=0;points=[];autosize=1;strokeColor=none;fillColor=none;" parent="WIyWlLk6GJQsqaUBKTNV-1" vertex="1">
          <mxGeometry x="375" y="205" width="30" height="30" as="geometry" />
        </mxCell>
        <mxCell id="UcYRCb74icyb-nwJt9lY-15" value="" style="edgeStyle=orthogonalEdgeStyle;rounded=0;orthogonalLoop=1;jettySize=auto;html=1;" parent="WIyWlLk6GJQsqaUBKTNV-1" source="UcYRCb74icyb-nwJt9lY-12" target="UcYRCb74icyb-nwJt9lY-14" edge="1">
          <mxGeometry relative="1" as="geometry" />
        </mxCell>
        <mxCell id="UcYRCb74icyb-nwJt9lY-18" value="" style="edgeStyle=orthogonalEdgeStyle;rounded=0;orthogonalLoop=1;jettySize=auto;html=1;" parent="WIyWlLk6GJQsqaUBKTNV-1" source="UcYRCb74icyb-nwJt9lY-12" target="UcYRCb74icyb-nwJt9lY-17" edge="1">
          <mxGeometry relative="1" as="geometry" />
        </mxCell>
        <mxCell id="UcYRCb74icyb-nwJt9lY-12" value="表单填写&lt;br&gt;是否正确" style="strokeWidth=2;html=1;shape=mxgraph.flowchart.decision;whiteSpace=wrap;" parent="WIyWlLk6GJQsqaUBKTNV-1" vertex="1">
          <mxGeometry x="350" y="320" width="100" height="60" as="geometry" />
        </mxCell>
        <mxCell id="UcYRCb74icyb-nwJt9lY-26" value="" style="edgeStyle=orthogonalEdgeStyle;rounded=0;orthogonalLoop=1;jettySize=auto;html=1;" parent="WIyWlLk6GJQsqaUBKTNV-1" source="UcYRCb74icyb-nwJt9lY-14" target="UcYRCb74icyb-nwJt9lY-3" edge="1">
          <mxGeometry relative="1" as="geometry" />
        </mxCell>
        <mxCell id="UcYRCb74icyb-nwJt9lY-14" value="保存成功&lt;br&gt;关闭弹窗" style="strokeWidth=2;html=1;shape=mxgraph.flowchart.terminator;whiteSpace=wrap;" parent="WIyWlLk6GJQsqaUBKTNV-1" vertex="1">
          <mxGeometry x="350" y="420" width="100" height="40" as="geometry" />
        </mxCell>
        <mxCell id="UcYRCb74icyb-nwJt9lY-16" value="Y" style="text;html=1;align=center;verticalAlign=middle;resizable=0;points=[];autosize=1;strokeColor=none;fillColor=none;" parent="WIyWlLk6GJQsqaUBKTNV-1" vertex="1">
          <mxGeometry x="375" y="385" width="30" height="30" as="geometry" />
        </mxCell>
        <mxCell id="UcYRCb74icyb-nwJt9lY-31" style="edgeStyle=orthogonalEdgeStyle;rounded=0;orthogonalLoop=1;jettySize=auto;html=1;" parent="WIyWlLk6GJQsqaUBKTNV-1" source="UcYRCb74icyb-nwJt9lY-17" edge="1">
          <mxGeometry relative="1" as="geometry">
            <mxPoint x="400" y="300" as="targetPoint" />
            <Array as="points">
              <mxPoint x="570" y="300" />
            </Array>
          </mxGeometry>
        </mxCell>
        <mxCell id="UcYRCb74icyb-nwJt9lY-33" value="" style="edgeStyle=orthogonalEdgeStyle;rounded=0;orthogonalLoop=1;jettySize=auto;html=1;" parent="WIyWlLk6GJQsqaUBKTNV-1" source="UcYRCb74icyb-nwJt9lY-17" target="UcYRCb74icyb-nwJt9lY-32" edge="1">
          <mxGeometry relative="1" as="geometry" />
        </mxCell>
        <mxCell id="UcYRCb74icyb-nwJt9lY-17" value="报错提示" style="strokeWidth=2;html=1;shape=mxgraph.flowchart.terminator;whiteSpace=wrap;" parent="WIyWlLk6GJQsqaUBKTNV-1" vertex="1">
          <mxGeometry x="520" y="330" width="100" height="40" as="geometry" />
        </mxCell>
        <mxCell id="UcYRCb74icyb-nwJt9lY-19" value="结束" style="strokeWidth=2;html=1;shape=mxgraph.flowchart.start_2;whiteSpace=wrap;fillColor=#d5e8d4;strokeColor=#82b366;" parent="WIyWlLk6GJQsqaUBKTNV-1" vertex="1">
          <mxGeometry x="545" y="500" width="50" height="50" as="geometry" />
        </mxCell>
        <mxCell id="UcYRCb74icyb-nwJt9lY-21" value="结束" style="strokeWidth=2;html=1;shape=mxgraph.flowchart.start_2;whiteSpace=wrap;fillColor=#d5e8d4;strokeColor=#82b366;" parent="WIyWlLk6GJQsqaUBKTNV-1" vertex="1">
          <mxGeometry x="520" y="135" width="50" height="50" as="geometry" />
        </mxCell>
        <mxCell id="UcYRCb74icyb-nwJt9lY-23" value="Y" style="text;html=1;align=center;verticalAlign=middle;resizable=0;points=[];autosize=1;strokeColor=none;fillColor=none;" parent="WIyWlLk6GJQsqaUBKTNV-1" vertex="1">
          <mxGeometry x="470" y="135" width="30" height="30" as="geometry" />
        </mxCell>
        <mxCell id="UcYRCb74icyb-nwJt9lY-24" value="N" style="text;html=1;align=center;verticalAlign=middle;resizable=0;points=[];autosize=1;strokeColor=none;fillColor=none;" parent="WIyWlLk6GJQsqaUBKTNV-1" vertex="1">
          <mxGeometry x="455" y="325" width="30" height="30" as="geometry" />
        </mxCell>
        <mxCell id="UcYRCb74icyb-nwJt9lY-34" value="" style="edgeStyle=orthogonalEdgeStyle;rounded=0;orthogonalLoop=1;jettySize=auto;html=1;" parent="WIyWlLk6GJQsqaUBKTNV-1" source="UcYRCb74icyb-nwJt9lY-32" target="UcYRCb74icyb-nwJt9lY-19" edge="1">
          <mxGeometry relative="1" as="geometry" />
        </mxCell>
        <mxCell id="UcYRCb74icyb-nwJt9lY-32" value="点击取消" style="strokeWidth=2;html=1;shape=mxgraph.flowchart.terminator;whiteSpace=wrap;" parent="WIyWlLk6GJQsqaUBKTNV-1" vertex="1">
          <mxGeometry x="520" y="420" width="100" height="40" as="geometry" />
        </mxCell>
      </root>
    </mxGraphModel>
  </diagram>
  <diagram id="0wYMzb4iM78JHfcz45OS" name="第 2 页">
    <mxGraphModel dx="1168" dy="546" grid="1" gridSize="10" guides="1" tooltips="1" connect="1" arrows="1" fold="1" page="1" pageScale="1" pageWidth="827" pageHeight="1169" math="0" shadow="0">
      <root>
        <mxCell id="0" />
        <mxCell id="1" parent="0" />
        <mxCell id="9gMIo2kGgWfZ6Rtn_CCb-25" value="" style="edgeStyle=orthogonalEdgeStyle;rounded=0;orthogonalLoop=1;jettySize=auto;html=1;" edge="1" parent="1" source="9gMIo2kGgWfZ6Rtn_CCb-2" target="9gMIo2kGgWfZ6Rtn_CCb-8">
          <mxGeometry relative="1" as="geometry" />
        </mxCell>
        <mxCell id="9gMIo2kGgWfZ6Rtn_CCb-2" value="开始" style="strokeWidth=2;html=1;shape=mxgraph.flowchart.start_2;whiteSpace=wrap;fillColor=#d5e8d4;strokeColor=#82b366;" vertex="1" parent="1">
          <mxGeometry x="375" y="120" width="50" height="50" as="geometry" />
        </mxCell>
        <mxCell id="9gMIo2kGgWfZ6Rtn_CCb-6" value="结束" style="strokeWidth=2;html=1;shape=mxgraph.flowchart.start_2;whiteSpace=wrap;fillColor=#d5e8d4;strokeColor=#82b366;" vertex="1" parent="1">
          <mxGeometry x="375" y="585" width="50" height="50" as="geometry" />
        </mxCell>
        <mxCell id="9gMIo2kGgWfZ6Rtn_CCb-7" value="" style="edgeStyle=orthogonalEdgeStyle;rounded=0;orthogonalLoop=1;jettySize=auto;html=1;" edge="1" parent="1" source="9gMIo2kGgWfZ6Rtn_CCb-8" target="9gMIo2kGgWfZ6Rtn_CCb-12">
          <mxGeometry relative="1" as="geometry" />
        </mxCell>
        <mxCell id="9gMIo2kGgWfZ6Rtn_CCb-8" value="弹出新增弹框" style="strokeWidth=2;html=1;shape=mxgraph.flowchart.terminator;whiteSpace=wrap;" vertex="1" parent="1">
          <mxGeometry x="350" y="230" width="100" height="40" as="geometry" />
        </mxCell>
        <mxCell id="9gMIo2kGgWfZ6Rtn_CCb-11" value="" style="edgeStyle=orthogonalEdgeStyle;rounded=0;orthogonalLoop=1;jettySize=auto;html=1;" edge="1" parent="1" source="9gMIo2kGgWfZ6Rtn_CCb-12" target="9gMIo2kGgWfZ6Rtn_CCb-18">
          <mxGeometry relative="1" as="geometry" />
        </mxCell>
        <mxCell id="9gMIo2kGgWfZ6Rtn_CCb-27" value="" style="edgeStyle=orthogonalEdgeStyle;rounded=0;orthogonalLoop=1;jettySize=auto;html=1;" edge="1" parent="1" source="9gMIo2kGgWfZ6Rtn_CCb-12" target="9gMIo2kGgWfZ6Rtn_CCb-26">
          <mxGeometry relative="1" as="geometry">
            <Array as="points">
              <mxPoint x="400" y="400" />
              <mxPoint x="400" y="400" />
            </Array>
          </mxGeometry>
        </mxCell>
        <mxCell id="9gMIo2kGgWfZ6Rtn_CCb-12" value="表单填写&lt;br&gt;是否正确" style="strokeWidth=2;html=1;shape=mxgraph.flowchart.decision;whiteSpace=wrap;" vertex="1" parent="1">
          <mxGeometry x="350" y="320" width="100" height="60" as="geometry" />
        </mxCell>
        <mxCell id="9gMIo2kGgWfZ6Rtn_CCb-13" value="" style="edgeStyle=orthogonalEdgeStyle;rounded=0;orthogonalLoop=1;jettySize=auto;html=1;" edge="1" parent="1" source="9gMIo2kGgWfZ6Rtn_CCb-14" target="9gMIo2kGgWfZ6Rtn_CCb-6">
          <mxGeometry relative="1" as="geometry" />
        </mxCell>
        <mxCell id="9gMIo2kGgWfZ6Rtn_CCb-14" value="保存成功&lt;br&gt;关闭弹窗" style="strokeWidth=2;html=1;shape=mxgraph.flowchart.terminator;whiteSpace=wrap;" vertex="1" parent="1">
          <mxGeometry x="350" y="520" width="100" height="40" as="geometry" />
        </mxCell>
        <mxCell id="9gMIo2kGgWfZ6Rtn_CCb-16" style="edgeStyle=orthogonalEdgeStyle;rounded=0;orthogonalLoop=1;jettySize=auto;html=1;" edge="1" parent="1" source="9gMIo2kGgWfZ6Rtn_CCb-18">
          <mxGeometry relative="1" as="geometry">
            <mxPoint x="400" y="300" as="targetPoint" />
            <Array as="points">
              <mxPoint x="680" y="300" />
            </Array>
          </mxGeometry>
        </mxCell>
        <mxCell id="9gMIo2kGgWfZ6Rtn_CCb-17" value="" style="edgeStyle=orthogonalEdgeStyle;rounded=0;orthogonalLoop=1;jettySize=auto;html=1;" edge="1" parent="1" source="9gMIo2kGgWfZ6Rtn_CCb-18" target="9gMIo2kGgWfZ6Rtn_CCb-24">
          <mxGeometry relative="1" as="geometry" />
        </mxCell>
        <mxCell id="9gMIo2kGgWfZ6Rtn_CCb-18" value="报错提示" style="strokeWidth=2;html=1;shape=mxgraph.flowchart.terminator;whiteSpace=wrap;" vertex="1" parent="1">
          <mxGeometry x="630" y="330" width="100" height="40" as="geometry" />
        </mxCell>
        <mxCell id="9gMIo2kGgWfZ6Rtn_CCb-19" value="结束" style="strokeWidth=2;html=1;shape=mxgraph.flowchart.start_2;whiteSpace=wrap;fillColor=#d5e8d4;strokeColor=#82b366;" vertex="1" parent="1">
          <mxGeometry x="655" y="505" width="50" height="50" as="geometry" />
        </mxCell>
        <mxCell id="9gMIo2kGgWfZ6Rtn_CCb-22" value="N" style="text;html=1;align=center;verticalAlign=middle;resizable=0;points=[];autosize=1;strokeColor=none;fillColor=none;" vertex="1" parent="1">
          <mxGeometry x="455" y="325" width="30" height="30" as="geometry" />
        </mxCell>
        <mxCell id="9gMIo2kGgWfZ6Rtn_CCb-23" value="" style="edgeStyle=orthogonalEdgeStyle;rounded=0;orthogonalLoop=1;jettySize=auto;html=1;" edge="1" parent="1" source="9gMIo2kGgWfZ6Rtn_CCb-24" target="9gMIo2kGgWfZ6Rtn_CCb-19">
          <mxGeometry relative="1" as="geometry" />
        </mxCell>
        <mxCell id="9gMIo2kGgWfZ6Rtn_CCb-24" value="点击取消" style="strokeWidth=2;html=1;shape=mxgraph.flowchart.terminator;whiteSpace=wrap;" vertex="1" parent="1">
          <mxGeometry x="630" y="420" width="100" height="40" as="geometry" />
        </mxCell>
        <mxCell id="9gMIo2kGgWfZ6Rtn_CCb-28" value="" style="edgeStyle=orthogonalEdgeStyle;rounded=0;orthogonalLoop=1;jettySize=auto;html=1;" edge="1" parent="1" source="9gMIo2kGgWfZ6Rtn_CCb-26" target="9gMIo2kGgWfZ6Rtn_CCb-14">
          <mxGeometry relative="1" as="geometry" />
        </mxCell>
        <mxCell id="9gMIo2kGgWfZ6Rtn_CCb-36" value="" style="edgeStyle=orthogonalEdgeStyle;rounded=0;orthogonalLoop=1;jettySize=auto;html=1;" edge="1" parent="1" source="9gMIo2kGgWfZ6Rtn_CCb-26" target="9gMIo2kGgWfZ6Rtn_CCb-33">
          <mxGeometry relative="1" as="geometry" />
        </mxCell>
        <mxCell id="9gMIo2kGgWfZ6Rtn_CCb-26" value="分组是否&lt;br&gt;已达上限" style="strokeWidth=2;html=1;shape=mxgraph.flowchart.decision;whiteSpace=wrap;" vertex="1" parent="1">
          <mxGeometry x="350" y="410" width="100" height="60" as="geometry" />
        </mxCell>
        <mxCell id="9gMIo2kGgWfZ6Rtn_CCb-29" value="Y" style="text;html=1;align=center;verticalAlign=middle;resizable=0;points=[];autosize=1;strokeColor=none;fillColor=none;" vertex="1" parent="1">
          <mxGeometry x="375" y="385" width="30" height="30" as="geometry" />
        </mxCell>
        <mxCell id="9gMIo2kGgWfZ6Rtn_CCb-30" value="N" style="text;html=1;align=center;verticalAlign=middle;resizable=0;points=[];autosize=1;strokeColor=none;fillColor=none;" vertex="1" parent="1">
          <mxGeometry x="375" y="475" width="30" height="30" as="geometry" />
        </mxCell>
        <mxCell id="9gMIo2kGgWfZ6Rtn_CCb-38" value="" style="edgeStyle=orthogonalEdgeStyle;rounded=0;orthogonalLoop=1;jettySize=auto;html=1;" edge="1" parent="1" source="9gMIo2kGgWfZ6Rtn_CCb-33" target="9gMIo2kGgWfZ6Rtn_CCb-24">
          <mxGeometry relative="1" as="geometry" />
        </mxCell>
        <mxCell id="9gMIo2kGgWfZ6Rtn_CCb-33" value="报错提示" style="strokeWidth=2;html=1;shape=mxgraph.flowchart.terminator;whiteSpace=wrap;" vertex="1" parent="1">
          <mxGeometry x="485" y="420" width="100" height="40" as="geometry" />
        </mxCell>
        <mxCell id="9gMIo2kGgWfZ6Rtn_CCb-37" value="Y" style="text;html=1;align=center;verticalAlign=middle;resizable=0;points=[];autosize=1;strokeColor=none;fillColor=none;" vertex="1" parent="1">
          <mxGeometry x="455" y="415" width="30" height="30" as="geometry" />
        </mxCell>
      </root>
    </mxGraphModel>
  </diagram>
</mxfile>
